<svg xmlns="http://www.w3.org/2000/svg" width="1em" height="1em" viewBox="0 0 30 26" fill="none"><path d="M26.2909 25.7312C26.2142 25.7315 26.1375 25.7318 26.0585 25.7321C25.8496 25.7329 25.6406 25.7329 25.4317 25.7328C25.2565 25.7327 25.0814 25.733 24.9062 25.7333C24.4926 25.7339 24.079 25.734 23.6653 25.7336C23.2403 25.7333 22.8152 25.734 22.3901 25.7352C22.0237 25.7363 21.6573 25.7366 21.2909 25.7364C21.0727 25.7363 20.8545 25.7365 20.6364 25.7373C20.3927 25.7382 20.149 25.7376 19.9053 25.7369C19.8341 25.7374 19.763 25.7378 19.6896 25.7383C18.6687 25.732 17.7556 25.3883 17.0337 24.6616C16.3488 23.9232 16.1048 23.0337 16.1058 22.0511C16.1056 21.9959 16.1055 21.9408 16.1053 21.884C16.1048 21.6997 16.1047 21.5155 16.1046 21.3312C16.1043 21.1988 16.104 21.0665 16.1037 20.9341C16.1029 20.5746 16.1026 20.2151 16.1023 19.8556C16.1021 19.6305 16.1019 19.4054 16.1016 19.1803C16.1009 18.5554 16.1003 17.9305 16.1001 17.3056C16.1001 17.2457 16.1001 17.2457 16.1001 17.1846C16.1001 17.1445 16.1001 17.1045 16.1 17.0632C16.1 16.9821 16.1 16.9009 16.1 16.8198C16.0999 16.7595 16.0999 16.7595 16.0999 16.6979C16.0997 16.048 16.0987 15.3982 16.0973 14.7484C16.0959 14.079 16.0952 13.4097 16.0951 12.7403C16.0951 12.3654 16.0947 11.9905 16.0937 11.6156C16.0927 11.262 16.0926 10.9084 16.0931 10.5549C16.0931 10.4262 16.0929 10.2975 16.0923 10.1688C16.0799 7.2825 16.9799 4.8532 19.0016 2.7818C20.5806 1.2136 22.9183 0.293002 25.1322 0.271502C25.1798 0.271002 25.2274 0.270502 25.2764 0.270002C25.3761 0.269202 25.4758 0.268603 25.5755 0.268103C25.6767 0.267403 25.7779 0.266202 25.879 0.264502C26.0269 0.262002 26.1746 0.261102 26.3224 0.260502C26.3894 0.258902 26.3894 0.258902 26.4577 0.257402C26.8173 0.258802 27.1264 0.354703 27.3952 0.602503C27.6266 0.865303 27.7299 1.1137 27.7317 1.4609C27.7326 1.5472 27.7326 1.5472 27.7334 1.6352C27.7334 1.6966 27.7333 1.7581 27.7333 1.8214C27.7335 1.8852 27.7338 1.949 27.734 2.0147C27.7344 2.1494 27.7344 2.2841 27.7341 2.4188C27.7339 2.6246 27.7353 2.8303 27.7368 3.036C27.7369 3.167 27.737 3.2981 27.7369 3.4291C27.7375 3.4905 27.738 3.5518 27.7386 3.615C27.7359 4.0276 27.6812 4.2857 27.4007 4.603C27.0378 4.9227 26.769 4.9791 26.2938 4.9832C26.2081 4.9846 26.1223 4.986 26.0366 4.9875C25.9032 4.9895 25.7698 4.9912 25.6364 4.992C24.8297 4.9978 24.0351 5.0911 23.3101 5.4746C23.2719 5.4945 23.2336 5.5143 23.1942 5.5348C22.167 6.0923 21.4107 7.0408 21.0325 8.1418C20.8833 8.6637 20.8482 9.1713 20.8455 9.7117C20.8437 9.8029 20.8437 9.8029 20.8419 9.8959C20.8388 10.5044 20.9536 10.9172 21.3765 11.3626C21.7782 11.7206 22.206 11.7783 22.7296 11.779C22.7982 11.7795 22.7982 11.7795 22.8683 11.7799C22.9674 11.7806 23.0666 11.7811 23.1657 11.7815C23.3232 11.7822 23.4807 11.7833 23.6382 11.7846C24.0859 11.7882 24.5336 11.7913 24.9814 11.7933C25.2556 11.7945 25.5299 11.7966 25.8041 11.7992C25.9081 11.8 26.012 11.8006 26.1159 11.8007C27.2876 11.8031 28.2549 12.0361 29.1219 12.8831C29.7907 13.6534 30.0185 14.4406 30.0178 15.4404C30.0182 15.5206 30.0186 15.6009 30.019 15.6811C30.02 15.8979 30.0203 16.1148 30.0204 16.3316C30.0205 16.4675 30.0207 16.6033 30.021 16.7392C30.0221 17.2142 30.0226 17.6892 30.0225 18.1642C30.0224 18.6052 30.0237 19.0462 30.0255 19.4872C30.0271 19.8672 30.0277 20.2473 30.0276 20.6273C30.0276 20.8537 30.0279 21.08 30.0291 21.3064C30.0303 21.5196 30.0303 21.7328 30.0294 21.946C30.0293 22.0602 30.0302 22.1745 30.0312 22.2887C30.0244 23.256 29.667 24.078 29.0047 24.7776C28.1982 25.4951 27.3489 25.7334 26.2909 25.7312Z" fill="#999999"/><path d="M10.5599 25.7249C10.4605 25.7255 10.4605 25.7255 10.3591 25.7262C10.2872 25.7263 10.2153 25.7265 10.1413 25.7266C10.0649 25.727 9.98855 25.7274 9.90985 25.7278C9.65725 25.729 9.40465 25.7296 9.15215 25.7302C9.06475 25.7305 8.97735 25.7307 8.89005 25.7309C8.47915 25.7321 8.06826 25.7329 7.65736 25.7334C7.18526 25.734 6.71316 25.7355 6.24096 25.7379C5.87476 25.7396 5.50846 25.7405 5.14226 25.7407C4.92416 25.7408 4.70606 25.7413 4.48796 25.7428C3.21156 25.7511 2.03916 25.7483 1.03826 24.8282C0.356356 24.095 -0.0187446 23.3088 -0.0153446 22.3089C-0.0156446 22.2505 -0.0159449 22.1921 -0.0162449 22.132C-0.0169449 21.9373 -0.0168446 21.7426 -0.0167446 21.5478C-0.0171446 21.4078 -0.0175443 21.2679 -0.0179443 21.1279C-0.0188443 20.7874 -0.0192443 20.4469 -0.0193443 20.1064C-0.0193443 19.8291 -0.0196451 19.5518 -0.0199451 19.2745C-0.0210451 18.4862 -0.0215443 17.6979 -0.0214443 16.9095C-0.0214443 16.8671 -0.0214443 16.8246 -0.0214443 16.7809C-0.0214443 16.7384 -0.0214443 16.6959 -0.0214443 16.6521C-0.0213443 15.9653 -0.0224451 15.2785 -0.0241451 14.5917C-0.0258451 13.8844 -0.0266446 13.1771 -0.0265446 12.4698C-0.0265446 12.0736 -0.0268437 11.6773 -0.0280437 11.2811C-0.0292437 10.9076 -0.0292451 10.5341 -0.0283451 10.1606C-0.0282451 10.0245 -0.0285435 9.88847 -0.0292435 9.75237C-0.0421435 7.12377 0.890656 4.78867 2.72296 2.89297C4.33436 1.26827 6.67746 0.294773 8.95986 0.272573C9.00746 0.272173 9.05496 0.271673 9.10396 0.271173C9.20366 0.270373 9.30336 0.269772 9.40306 0.269272C9.50426 0.268572 9.60546 0.267373 9.70666 0.265673C9.85446 0.263173 10.0023 0.262172 10.1501 0.261572C10.217 0.260072 10.217 0.260072 10.2853 0.258472C10.6645 0.260072 10.968 0.375173 11.2538 0.627373C11.2804 0.661173 11.3071 0.694873 11.3345 0.729673C11.3623 0.763573 11.39 0.797472 11.4185 0.832472C11.5427 1.01757 11.5515 1.18297 11.5546 1.39907C11.5555 1.45857 11.5565 1.51807 11.5574 1.57927C11.5601 1.85157 11.5625 2.12387 11.5638 2.39617C11.5648 2.53957 11.5664 2.68287 11.5686 2.82627C11.5718 3.03347 11.5731 3.24047 11.574 3.44767C11.5753 3.51137 11.5766 3.57497 11.578 3.64057C11.5766 4.12927 11.4554 4.41737 11.1112 4.76167C10.7937 4.95817 10.4712 4.98837 10.1043 4.99007C10.0191 4.99127 9.93385 4.99247 9.84875 4.99377C9.71725 4.99507 9.58576 4.99607 9.45436 4.99637C8.22646 5.00187 7.14146 5.30167 6.21126 6.14597C6.13716 6.21187 6.13716 6.21187 6.06156 6.27917C5.15506 7.13047 4.72805 8.26007 4.67105 9.48347C4.65295 10.1437 4.67935 10.7261 5.11345 11.258C5.47965 11.6283 5.92746 11.7822 6.44586 11.7873C6.48876 11.7872 6.53166 11.787 6.57586 11.7869C6.62226 11.7872 6.66856 11.7875 6.71636 11.7878C6.81646 11.7884 6.91646 11.7887 7.01656 11.7888C7.17556 11.7891 7.33456 11.79 7.49346 11.7912C7.94536 11.7945 8.39716 11.7963 8.84896 11.7977C9.12606 11.7986 9.40305 11.8004 9.68015 11.8027C9.78505 11.8034 9.88996 11.8037 9.99486 11.8037C11.1664 11.8038 12.1129 12.042 12.9692 12.8904C13.7127 13.6982 13.9054 14.6335 13.9031 15.6998C13.9034 15.7734 13.9037 15.8471 13.904 15.923C13.9047 16.1231 13.9049 16.3232 13.9047 16.5233C13.9046 16.6913 13.9049 16.8593 13.9052 17.0274C13.9059 17.4243 13.9059 17.8211 13.9055 18.218C13.9052 18.6253 13.9059 19.0326 13.9072 19.4399C13.9082 19.7915 13.9085 20.1431 13.9083 20.4948C13.9082 20.7039 13.9084 20.9131 13.9092 21.1222C13.9101 21.3559 13.9095 21.5896 13.9089 21.8233C13.9093 21.8911 13.9098 21.9589 13.9102 22.0288C13.9034 23.1035 13.591 24.0385 12.8255 24.8007C12.2032 25.3673 11.4063 25.7212 10.5599 25.7249Z" fill="#999999"/></svg>